<svg xmlns="http://www.w3.org/2000/svg" viewBox="0 0 41 41" shape-rendering="crispEdges"><rect width="41" height="41" fill="#fff"></rect><path stroke="#0e1215" d="M2 2.5h7M10 2.5h1M12 2.5h1M14 2.5h1M16 2.5h1M20 2.5h1M23 2.5h3M28 2.5h1M30 2.5h1M32 2.5h7M2 3.5h1M8 3.5h1M10 3.5h1M12 3.5h1M14 3.5h2M18 3.5h3M22 3.5h2M25 3.5h1M27 3.5h2M30 3.5h1M32 3.5h1M38 3.5h1M2 4.5h1M4 4.5h3M8 4.5h1M11 4.5h1M14 4.5h3M20 4.5h3M25 4.5h3M30 4.5h1M32 4.5h1M34 4.5h3M38 4.5h1M2 5.5h1M4 5.5h3M8 5.5h1M10 5.5h1M15 5.5h1M17 5.5h1M19 5.5h1M21 5.5h1M24 5.5h2M27 5.5h2M30 5.5h1M32 5.5h1M34 5.5h3M38 5.5h1M2 6.5h1M4 6.5h3M8 6.5h1M11 6.5h1M14 6.5h3M18 6.5h1M21 6.5h1M26 6.5h1M28 6.5h3M32 6.5h1M34 6.5h3M38 6.5h1M2 7.5h1M8 7.5h1M11 7.5h5M18 7.5h5M26 7.5h1M32 7.5h1M38 7.5h1M2 8.5h7M10 8.5h1M12 8.5h1M14 8.5h1M16 8.5h1M18 8.5h1M20 8.5h1M22 8.5h1M24 8.5h1M26 8.5h1M28 8.5h1M30 8.5h1M32 8.5h7M10 9.5h4M15 9.5h4M21 9.5h2M25 9.5h2M28 9.5h1M30 9.5h1M2 10.5h1M4 10.5h2M7 10.5h3M11 10.5h1M13 10.5h1M15 10.5h1M20 10.5h2M23 10.5h1M25 10.5h1M29 10.5h2M32 10.5h1M35 10.5h1M37 10.5h2M2 11.5h2M6 11.5h1M9 11.5h2M13 11.5h1M16 11.5h2M19 11.5h4M25 11.5h1M30 11.5h1M35 11.5h1M37 11.5h1M3 12.5h1M5 12.5h1M8 12.5h1M10 12.5h6M18 12.5h3M25 12.5h2M30 12.5h1M32 12.5h1M34 12.5h1M36 12.5h1M7 13.5h1M11 13.5h1M13 13.5h2M16 13.5h1M18 13.5h1M21 13.5h2M26 13.5h3M30 13.5h1M36 13.5h1M2 14.5h3M7 14.5h2M11 14.5h1M13 14.5h1M15 14.5h7M24 14.5h1M26 14.5h4M31 14.5h2M34 14.5h1M36 14.5h3M2 15.5h3M6 15.5h1M9 15.5h1M11 15.5h1M13 15.5h2M16 15.5h2M19 15.5h1M21 15.5h1M23 15.5h2M29 15.5h1M31 15.5h5M38 15.5h1M2 16.5h1M4 16.5h1M6 16.5h4M11 16.5h1M13 16.5h1M18 16.5h1M21 16.5h1M23 16.5h1M26 16.5h3M30 16.5h2M34 16.5h1M36 16.5h1M4 17.5h1M7 17.5h1M10 17.5h1M12 17.5h1M21 17.5h1M23 17.5h2M28 17.5h1M31 17.5h4M37 17.5h2M8 18.5h1M10 18.5h3M15 18.5h1M19 18.5h1M22 18.5h4M27 18.5h2M31 18.5h1M33 18.5h1M35 18.5h2M4 19.5h1M6 19.5h2M9 19.5h1M11 19.5h1M13 19.5h2M19 19.5h2M22 19.5h1M25 19.5h5M31 19.5h3M36 19.5h3M2 20.5h1M4 20.5h2M7 20.5h3M14 20.5h1M16 20.5h1M19 20.5h1M23 20.5h2M26 20.5h2M29 20.5h1M31 20.5h2M35 20.5h1M37 20.5h2M2 21.5h1M5 21.5h1M7 21.5h1M14 21.5h1M17 21.5h3M26 21.5h1M34 21.5h1M37 21.5h1M2 22.5h2M6 22.5h1M8 22.5h2M11 22.5h1M13 22.5h1M15 22.5h1M17 22.5h1M19 22.5h5M28 22.5h2M31 22.5h1M33 22.5h2M38 22.5h1M3 23.5h1M6 23.5h2M9 23.5h5M17 23.5h7M25 23.5h1M30 23.5h1M35 23.5h1M2 24.5h3M7 24.5h2M12 24.5h3M18 24.5h1M20 24.5h1M23 24.5h1M25 24.5h4M30 24.5h2M33 24.5h1M37 24.5h1M2 25.5h1M4 25.5h2M9 25.5h3M13 25.5h3M17 25.5h1M19 25.5h1M21 25.5h2M24 25.5h2M27 25.5h1M32 25.5h1M34 25.5h3M38 25.5h1M3 26.5h6M14 26.5h1M18 26.5h1M22 26.5h1M24 26.5h1M27 26.5h1M29 26.5h1M32 26.5h3M36 26.5h1M38 26.5h1M3 27.5h1M5 27.5h3M12 27.5h2M15 27.5h2M19 27.5h1M21 27.5h1M24 27.5h1M26 27.5h2M29 27.5h2M32 27.5h1M34 27.5h5M3 28.5h1M5 28.5h2M8 28.5h2M11 28.5h4M21 28.5h1M28 28.5h1M33 28.5h5M2 29.5h1M5 29.5h3M9 29.5h1M12 29.5h1M14 29.5h1M17 29.5h1M23 29.5h3M28 29.5h1M31 29.5h2M35 29.5h1M38 29.5h1M4 30.5h1M8 30.5h1M11 30.5h1M13 30.5h2M20 30.5h4M27 30.5h1M30 30.5h5M36 30.5h1M38 30.5h1M10 31.5h1M12 31.5h2M16 31.5h3M20 31.5h1M22 31.5h7M30 31.5h1M34 31.5h1M36 31.5h3M2 32.5h7M10 32.5h1M13 32.5h1M17 32.5h1M20 32.5h1M23 32.5h1M26 32.5h1M30 32.5h1M32 32.5h1M34 32.5h1M36 32.5h1M38 32.5h1M2 33.5h1M8 33.5h1M10 33.5h2M13 33.5h3M19 33.5h3M24 33.5h1M28 33.5h3M34 33.5h1M2 34.5h1M4 34.5h3M8 34.5h1M11 34.5h2M14 34.5h3M18 34.5h1M21 34.5h1M23 34.5h2M27 34.5h2M30 34.5h6M2 35.5h1M4 35.5h3M8 35.5h1M10 35.5h2M13 35.5h1M15 35.5h1M17 35.5h2M21 35.5h2M25 35.5h1M29 35.5h1M31 35.5h2M34 35.5h1M38 35.5h1M2 36.5h1M4 36.5h3M8 36.5h1M10 36.5h1M13 36.5h1M17 36.5h1M19 36.5h1M22 36.5h5M29 36.5h1M31 36.5h2M34 36.5h2M2 37.5h1M8 37.5h1M11 37.5h2M15 37.5h3M22 37.5h1M24 37.5h1M27 37.5h2M30 37.5h1M33 37.5h2M36 37.5h1M2 38.5h7M10 38.5h1M13 38.5h1M15 38.5h2M18 38.5h2M21 38.5h2M24 38.5h2M27 38.5h2M32 38.5h1M34 38.5h1M36 38.5h3"></path></svg>