<svg xmlns="http://www.w3.org/2000/svg" viewBox="0 0 45 45" shape-rendering="crispEdges"><rect width="45" height="45" fill="#fff"></rect><path stroke="#0e1215" d="M2 2.5h7M11 2.5h1M17 2.5h2M20 2.5h1M22 2.5h2M28 2.5h1M30 2.5h2M36 2.5h7M2 3.5h1M8 3.5h1M10 3.5h2M13 3.5h1M15 3.5h2M18 3.5h2M22 3.5h1M27 3.5h2M34 3.5h1M36 3.5h1M42 3.5h1M2 4.5h1M4 4.5h3M8 4.5h1M10 4.5h4M18 4.5h4M23 4.5h2M27 4.5h1M29 4.5h2M32 4.5h1M34 4.5h1M36 4.5h1M38 4.5h3M42 4.5h1M2 5.5h1M4 5.5h3M8 5.5h1M10 5.5h4M15 5.5h1M18 5.5h1M22 5.5h1M24 5.5h1M26 5.5h1M31 5.5h1M34 5.5h1M36 5.5h1M38 5.5h3M42 5.5h1M2 6.5h1M4 6.5h3M8 6.5h1M11 6.5h1M13 6.5h1M18 6.5h5M24 6.5h3M29 6.5h5M36 6.5h1M38 6.5h3M42 6.5h1M2 7.5h1M8 7.5h1M11 7.5h1M16 7.5h3M22 7.5h3M26 7.5h2M30 7.5h1M36 7.5h1M42 7.5h1M2 8.5h7M10 8.5h1M12 8.5h1M14 8.5h1M16 8.5h1M18 8.5h1M20 8.5h1M22 8.5h1M24 8.5h1M26 8.5h1M28 8.5h1M30 8.5h1M32 8.5h1M34 8.5h1M36 8.5h7M10 9.5h1M15 9.5h1M17 9.5h1M21 9.5h1M24 9.5h1M26 9.5h1M29 9.5h2M32 9.5h1M34 9.5h1M2 10.5h1M8 10.5h1M10 10.5h2M17 10.5h1M19 10.5h1M24 10.5h1M26 10.5h2M30 10.5h2M33 10.5h1M35 10.5h2M39 10.5h3M3 11.5h1M7 11.5h1M11 11.5h4M16 11.5h1M19 11.5h1M21 11.5h3M25 11.5h1M28 11.5h2M31 11.5h3M35 11.5h1M38 11.5h1M2 12.5h1M7 12.5h3M11 12.5h2M15 12.5h1M17 12.5h3M22 12.5h3M27 12.5h1M29 12.5h3M34 12.5h1M37 12.5h2M2 13.5h1M5 13.5h1M9 13.5h1M15 13.5h4M22 13.5h1M24 13.5h3M30 13.5h1M32 13.5h4M37 13.5h3M2 14.5h2M8 14.5h1M10 14.5h4M15 14.5h1M18 14.5h1M21 14.5h1M24 14.5h3M28 14.5h2M35 14.5h2M41 14.5h2M2 15.5h2M6 15.5h2M11 15.5h4M17 15.5h1M20 15.5h1M28 15.5h1M32 15.5h3M36 15.5h4M42 15.5h1M6 16.5h5M12 16.5h1M14 16.5h2M22 16.5h1M25 16.5h2M28 16.5h3M35 16.5h1M37 16.5h3M2 17.5h1M7 17.5h1M10 17.5h2M14 17.5h3M18 17.5h1M22 17.5h1M24 17.5h2M30 17.5h1M32 17.5h1M34 17.5h2M37 17.5h2M40 17.5h1M42 17.5h1M4 18.5h5M14 18.5h7M22 18.5h1M24 18.5h4M29 18.5h3M33 18.5h1M35 18.5h1M37 18.5h1M40 18.5h1M3 19.5h1M5 19.5h2M9 19.5h2M12 19.5h1M14 19.5h5M21 19.5h3M28 19.5h4M33 19.5h6M42 19.5h1M3 20.5h1M5 20.5h1M8 20.5h1M10 20.5h4M15 20.5h1M18 20.5h4M25 20.5h5M31 20.5h1M33 20.5h6M40 20.5h1M42 20.5h1M2 21.5h2M7 21.5h1M9 21.5h1M12 21.5h2M21 21.5h3M26 21.5h1M28 21.5h1M33 21.5h1M36 21.5h1M38 21.5h2M2 22.5h2M6 22.5h1M8 22.5h1M12 22.5h2M15 22.5h1M18 22.5h1M20 22.5h6M29 22.5h1M31 22.5h1M39 22.5h2M4 23.5h1M7 23.5h1M9 23.5h3M14 23.5h1M16 23.5h1M18 23.5h1M24 23.5h4M29 23.5h2M32 23.5h2M37 23.5h3M4 24.5h6M13 24.5h3M17 24.5h1M19 24.5h2M23 24.5h2M26 24.5h1M28 24.5h2M34 24.5h2M37 24.5h1M2 25.5h1M9 25.5h2M12 25.5h1M18 25.5h1M24 25.5h3M28 25.5h1M34 25.5h1M36 25.5h1M38 25.5h2M41 25.5h2M3 26.5h1M8 26.5h2M11 26.5h2M14 26.5h4M21 26.5h2M25 26.5h1M29 26.5h2M33 26.5h5M39 26.5h1M41 26.5h1M2 27.5h3M6 27.5h1M10 27.5h2M13 27.5h1M15 27.5h2M18 27.5h5M24 27.5h2M28 27.5h3M32 27.5h2M35 27.5h2M38 27.5h2M41 27.5h1M2 28.5h4M7 28.5h2M11 28.5h1M13 28.5h1M15 28.5h1M17 28.5h1M22 28.5h3M28 28.5h2M32 28.5h1M34 28.5h5M4 29.5h2M10 29.5h2M14 29.5h2M17 29.5h1M20 29.5h3M33 29.5h1M35 29.5h2M39 29.5h2M42 29.5h1M3 30.5h1M5 30.5h1M7 30.5h3M13 30.5h1M16 30.5h4M27 30.5h1M29 30.5h1M31 30.5h1M33 30.5h1M35 30.5h1M39 30.5h3M2 31.5h2M6 31.5h2M10 31.5h1M12 31.5h3M17 31.5h1M20 31.5h1M22 31.5h1M24 31.5h1M26 31.5h1M30 31.5h1M33 31.5h2M36 31.5h7M2 32.5h4M8 32.5h1M11 32.5h2M14 32.5h1M16 32.5h3M20 32.5h1M22 32.5h2M25 32.5h1M28 32.5h1M30 32.5h1M32 32.5h4M37 32.5h1M39 32.5h1M42 32.5h1M2 33.5h1M4 33.5h1M6 33.5h1M9 33.5h1M20 33.5h3M24 33.5h1M26 33.5h1M29 33.5h2M32 33.5h3M36 33.5h4M41 33.5h1M2 34.5h1M4 34.5h1M8 34.5h2M11 34.5h1M17 34.5h1M19 34.5h3M24 34.5h1M26 34.5h2M31 34.5h1M33 34.5h10M10 35.5h1M13 35.5h1M18 35.5h2M21 35.5h1M24 35.5h4M29 35.5h1M31 35.5h4M38 35.5h1M40 35.5h2M2 36.5h7M11 36.5h3M15 36.5h1M19 36.5h1M22 36.5h2M26 36.5h5M34 36.5h1M36 36.5h1M38 36.5h1M40 36.5h1M2 37.5h1M8 37.5h1M12 37.5h2M16 37.5h2M19 37.5h2M22 37.5h1M24 37.5h1M26 37.5h2M30 37.5h1M32 37.5h3M38 37.5h2M41 37.5h1M2 38.5h1M4 38.5h3M8 38.5h1M11 38.5h1M18 38.5h2M23 38.5h3M27 38.5h1M29 38.5h1M31 38.5h8M41 38.5h1M2 39.5h1M4 39.5h3M8 39.5h1M11 39.5h1M15 39.5h1M17 39.5h2M20 39.5h2M24 39.5h3M29 39.5h2M32 39.5h1M37 39.5h1M41 39.5h1M2 40.5h1M4 40.5h3M8 40.5h1M11 40.5h8M27 40.5h1M29 40.5h1M32 40.5h1M35 40.5h5M2 41.5h1M8 41.5h1M12 41.5h2M16 41.5h1M21 41.5h2M24 41.5h1M28 41.5h1M30 41.5h1M36 41.5h1M38 41.5h3M42 41.5h1M2 42.5h7M10 42.5h1M12 42.5h2M16 42.5h2M20 42.5h1M24 42.5h1M26 42.5h4M31 42.5h1M33 42.5h1M36 42.5h3M40 42.5h1"></path></svg>