<svg xmlns="http://www.w3.org/2000/svg" viewBox="0 0 41 41" shape-rendering="crispEdges"><rect width="41" height="41" fill="#fff"></rect><path stroke="#0e1215" d="M2 2.5h7M10 2.5h4M15 2.5h1M20 2.5h2M23 2.5h1M25 2.5h1M28 2.5h1M32 2.5h7M2 3.5h1M8 3.5h1M10 3.5h1M15 3.5h1M18 3.5h3M22 3.5h2M25 3.5h1M27 3.5h2M30 3.5h1M32 3.5h1M38 3.5h1M2 4.5h1M4 4.5h3M8 4.5h1M12 4.5h1M14 4.5h2M17 4.5h1M20 4.5h3M25 4.5h3M32 4.5h1M34 4.5h3M38 4.5h1M2 5.5h1M4 5.5h3M8 5.5h1M10 5.5h2M15 5.5h2M19 5.5h1M21 5.5h1M24 5.5h2M27 5.5h4M32 5.5h1M34 5.5h3M38 5.5h1M2 6.5h1M4 6.5h3M8 6.5h1M11 6.5h1M14 6.5h3M18 6.5h1M21 6.5h1M26 6.5h1M28 6.5h3M32 6.5h1M34 6.5h3M38 6.5h1M2 7.5h1M8 7.5h1M11 7.5h2M14 7.5h1M16 7.5h1M18 7.5h1M21 7.5h3M26 7.5h1M32 7.5h1M38 7.5h1M2 8.5h7M10 8.5h1M12 8.5h1M14 8.5h1M16 8.5h1M18 8.5h1M20 8.5h1M22 8.5h1M24 8.5h1M26 8.5h1M28 8.5h1M30 8.5h1M32 8.5h7M10 9.5h1M12 9.5h2M17 9.5h1M19 9.5h4M24 9.5h3M28 9.5h1M30 9.5h1M2 10.5h1M4 10.5h2M7 10.5h3M11 10.5h2M15 10.5h1M17 10.5h1M19 10.5h1M21 10.5h1M23 10.5h3M29 10.5h2M32 10.5h1M35 10.5h1M37 10.5h2M3 11.5h2M6 11.5h2M9 11.5h2M12 11.5h3M17 11.5h1M19 11.5h4M25 11.5h1M28 11.5h1M33 11.5h1M35 11.5h1M37 11.5h1M3 12.5h1M6 12.5h1M8 12.5h1M10 12.5h1M12 12.5h1M15 12.5h1M18 12.5h3M22 12.5h1M25 12.5h2M32 12.5h3M3 13.5h3M7 13.5h1M10 13.5h1M18 13.5h1M21 13.5h2M27 13.5h4M36 13.5h1M3 14.5h1M6 14.5h1M8 14.5h1M17 14.5h5M24 14.5h6M31 14.5h2M34 14.5h5M2 15.5h1M4 15.5h1M6 15.5h1M16 15.5h2M21 15.5h1M24 15.5h1M29 15.5h1M31 15.5h5M38 15.5h1M3 16.5h1M6 16.5h7M14 16.5h2M18 16.5h4M26 16.5h2M30 16.5h3M34 16.5h1M36 16.5h1M2 17.5h1M5 17.5h1M7 17.5h1M10 17.5h1M13 17.5h3M20 17.5h2M23 17.5h2M31 17.5h4M2 18.5h1M5 18.5h2M8 18.5h1M10 18.5h3M14 18.5h1M16 18.5h1M20 18.5h1M22 18.5h2M25 18.5h1M30 18.5h1M35 18.5h3M7 19.5h1M10 19.5h2M19 19.5h1M22 19.5h1M25 19.5h5M32 19.5h1M35 19.5h1M37 19.5h2M2 20.5h1M5 20.5h1M7 20.5h3M11 20.5h1M13 20.5h1M15 20.5h2M19 20.5h1M22 20.5h3M26 20.5h2M29 20.5h6M37 20.5h2M5 21.5h1M7 21.5h1M10 21.5h2M15 21.5h1M17 21.5h3M22 21.5h1M26 21.5h1M30 21.5h1M34 21.5h1M37 21.5h1M2 22.5h2M6 22.5h1M8 22.5h2M11 22.5h3M15 22.5h3M19 22.5h5M25 22.5h1M28 22.5h1M31 22.5h1M33 22.5h2M38 22.5h1M4 23.5h1M7 23.5h1M10 23.5h2M14 23.5h1M16 23.5h8M25 23.5h1M30 23.5h1M35 23.5h1M37 23.5h1M3 24.5h2M8 24.5h1M10 24.5h5M18 24.5h2M23 24.5h1M25 24.5h2M28 24.5h1M30 24.5h1M33 24.5h1M37 24.5h1M10 25.5h1M13 25.5h1M17 25.5h1M21 25.5h2M24 25.5h2M27 25.5h1M31 25.5h1M34 25.5h4M2 26.5h1M4 26.5h1M7 26.5h2M10 26.5h2M13 26.5h2M19 26.5h1M26 26.5h4M31 26.5h3M36 26.5h3M3 27.5h2M6 27.5h2M9 27.5h2M16 27.5h1M19 27.5h3M24 27.5h1M26 27.5h5M32 27.5h4M37 27.5h2M3 28.5h3M8 28.5h1M12 28.5h2M15 28.5h2M18 28.5h1M21 28.5h1M28 28.5h1M30 28.5h1M33 28.5h1M35 28.5h3M2 29.5h1M4 29.5h2M12 29.5h1M17 29.5h2M21 29.5h5M28 29.5h5M35 29.5h1M5 30.5h4M14 30.5h4M20 30.5h1M22 30.5h2M27 30.5h1M30 30.5h8M10 31.5h1M13 31.5h1M15 31.5h1M17 31.5h2M20 31.5h1M22 31.5h1M24 31.5h3M28 31.5h1M30 31.5h1M34 31.5h1M36 31.5h1M38 31.5h1M2 32.5h7M10 32.5h1M12 32.5h4M17 32.5h1M23 32.5h1M26 32.5h1M28 32.5h1M30 32.5h1M32 32.5h1M34 32.5h1M36 32.5h1M38 32.5h1M2 33.5h1M8 33.5h1M10 33.5h1M12 33.5h4M19 33.5h1M21 33.5h1M28 33.5h3M34 33.5h1M38 33.5h1M2 34.5h1M4 34.5h3M8 34.5h1M11 34.5h2M14 34.5h1M16 34.5h1M18 34.5h4M23 34.5h2M28 34.5h1M30 34.5h6M37 34.5h1M2 35.5h1M4 35.5h3M8 35.5h1M10 35.5h4M16 35.5h1M18 35.5h1M20 35.5h1M22 35.5h1M25 35.5h1M29 35.5h1M31 35.5h2M34 35.5h2M37 35.5h2M2 36.5h1M4 36.5h3M8 36.5h1M10 36.5h1M12 36.5h3M16 36.5h1M18 36.5h2M22 36.5h5M29 36.5h1M31 36.5h2M34 36.5h1M36 36.5h1M2 37.5h1M8 37.5h1M13 37.5h4M21 37.5h1M24 37.5h1M27 37.5h3M33 37.5h2M36 37.5h1M2 38.5h7M10 38.5h1M13 38.5h1M18 38.5h2M21 38.5h2M24 38.5h1M27 38.5h2M31 38.5h1M34 38.5h1M36 38.5h3"></path></svg>