<svg xmlns="http://www.w3.org/2000/svg" viewBox="0 0 41 41" shape-rendering="crispEdges"><rect width="41" height="41" fill="#fff"></rect><path stroke="#0e1215" d="M2 2.5h7M10 2.5h1M14 2.5h1M18 2.5h1M20 2.5h4M25 2.5h1M28 2.5h1M32 2.5h7M2 3.5h1M8 3.5h1M10 3.5h1M12 3.5h1M16 3.5h1M19 3.5h2M23 3.5h1M25 3.5h1M27 3.5h2M30 3.5h1M32 3.5h1M38 3.5h1M2 4.5h1M4 4.5h3M8 4.5h1M17 4.5h1M20 4.5h2M25 4.5h3M32 4.5h1M34 4.5h3M38 4.5h1M2 5.5h1M4 5.5h3M8 5.5h1M10 5.5h1M12 5.5h1M15 5.5h1M17 5.5h3M21 5.5h1M24 5.5h2M27 5.5h4M32 5.5h1M34 5.5h3M38 5.5h1M2 6.5h1M4 6.5h3M8 6.5h1M11 6.5h1M14 6.5h2M17 6.5h1M21 6.5h1M26 6.5h1M28 6.5h3M32 6.5h1M34 6.5h3M38 6.5h1M2 7.5h1M8 7.5h1M11 7.5h2M14 7.5h1M16 7.5h2M19 7.5h5M26 7.5h1M32 7.5h1M38 7.5h1M2 8.5h7M10 8.5h1M12 8.5h1M14 8.5h1M16 8.5h1M18 8.5h1M20 8.5h1M22 8.5h1M24 8.5h1M26 8.5h1M28 8.5h1M30 8.5h1M32 8.5h7M10 9.5h3M14 9.5h4M19 9.5h1M21 9.5h2M24 9.5h3M28 9.5h1M30 9.5h1M2 10.5h1M4 10.5h2M7 10.5h3M11 10.5h2M14 10.5h2M18 10.5h4M23 10.5h3M29 10.5h2M32 10.5h1M35 10.5h1M37 10.5h2M2 11.5h1M4 11.5h3M9 11.5h2M12 11.5h3M17 11.5h1M19 11.5h4M25 11.5h1M28 11.5h1M33 11.5h1M35 11.5h1M37 11.5h1M3 12.5h2M8 12.5h3M12 12.5h1M15 12.5h2M19 12.5h2M22 12.5h1M25 12.5h2M32 12.5h3M4 13.5h1M7 13.5h1M9 13.5h1M11 13.5h1M14 13.5h3M27 13.5h4M36 13.5h1M3 14.5h2M6 14.5h3M11 14.5h4M18 14.5h3M24 14.5h6M31 14.5h2M34 14.5h5M3 15.5h1M5 15.5h2M9 15.5h1M11 15.5h1M17 15.5h1M19 15.5h1M21 15.5h1M24 15.5h1M29 15.5h1M31 15.5h5M38 15.5h1M2 16.5h1M4 16.5h9M14 16.5h1M16 16.5h1M18 16.5h4M26 16.5h2M30 16.5h3M34 16.5h1M36 16.5h1M2 17.5h1M4 17.5h1M11 17.5h2M15 17.5h1M21 17.5h1M23 17.5h2M31 17.5h4M2 18.5h3M6 18.5h3M10 18.5h1M12 18.5h2M23 18.5h1M25 18.5h1M30 18.5h1M35 18.5h3M2 19.5h2M5 19.5h3M9 19.5h1M11 19.5h2M14 19.5h4M19 19.5h1M22 19.5h1M25 19.5h5M32 19.5h1M35 19.5h1M37 19.5h2M2 20.5h1M6 20.5h4M11 20.5h9M23 20.5h2M26 20.5h2M29 20.5h6M37 20.5h2M3 21.5h2M6 21.5h2M9 21.5h4M15 21.5h2M18 21.5h2M22 21.5h1M26 21.5h1M30 21.5h1M34 21.5h1M37 21.5h1M5 22.5h2M8 22.5h1M10 22.5h2M15 22.5h1M17 22.5h1M19 22.5h5M25 22.5h1M28 22.5h1M31 22.5h1M33 22.5h2M38 22.5h1M4 23.5h1M6 23.5h2M9 23.5h2M12 23.5h1M14 23.5h1M17 23.5h7M25 23.5h1M30 23.5h1M35 23.5h1M37 23.5h1M2 24.5h1M7 24.5h3M11 24.5h1M14 24.5h1M18 24.5h2M23 24.5h1M25 24.5h2M28 24.5h1M30 24.5h1M33 24.5h1M37 24.5h1M3 25.5h1M6 25.5h2M11 25.5h1M13 25.5h5M20 25.5h3M24 25.5h2M27 25.5h1M31 25.5h1M34 25.5h4M8 26.5h1M14 26.5h2M19 26.5h2M22 26.5h1M26 26.5h4M31 26.5h3M36 26.5h3M6 27.5h1M10 27.5h1M12 27.5h4M17 27.5h3M21 27.5h1M24 27.5h1M26 27.5h5M32 27.5h4M37 27.5h2M3 28.5h1M5 28.5h4M12 28.5h5M18 28.5h1M21 28.5h2M28 28.5h1M30 28.5h1M33 28.5h1M35 28.5h3M2 29.5h1M7 29.5h1M9 29.5h1M11 29.5h2M15 29.5h1M17 29.5h2M21 29.5h1M23 29.5h3M28 29.5h5M35 29.5h1M38 29.5h1M5 30.5h1M7 30.5h7M20 30.5h1M22 30.5h2M27 30.5h1M30 30.5h7M10 31.5h2M15 31.5h6M22 31.5h1M24 31.5h3M28 31.5h1M30 31.5h1M34 31.5h1M36 31.5h1M38 31.5h1M2 32.5h7M10 32.5h2M15 32.5h3M19 32.5h1M23 32.5h1M26 32.5h1M28 32.5h1M30 32.5h1M32 32.5h1M34 32.5h1M36 32.5h1M38 32.5h1M2 33.5h1M8 33.5h1M10 33.5h4M19 33.5h1M21 33.5h1M28 33.5h3M34 33.5h1M37 33.5h1M2 34.5h1M4 34.5h3M8 34.5h1M12 34.5h2M16 34.5h1M19 34.5h6M28 34.5h1M30 34.5h6M38 34.5h1M2 35.5h1M4 35.5h3M8 35.5h1M10 35.5h1M13 35.5h1M16 35.5h1M18 35.5h1M20 35.5h1M22 35.5h1M25 35.5h1M29 35.5h1M31 35.5h2M34 35.5h2M37 35.5h2M2 36.5h1M4 36.5h3M8 36.5h1M10 36.5h1M12 36.5h3M19 36.5h1M22 36.5h5M29 36.5h1M31 36.5h2M34 36.5h1M36 36.5h1M2 37.5h1M8 37.5h1M11 37.5h1M13 37.5h2M18 37.5h1M21 37.5h1M24 37.5h1M27 37.5h3M33 37.5h2M36 37.5h1M2 38.5h7M10 38.5h1M12 38.5h2M15 38.5h1M18 38.5h2M21 38.5h2M24 38.5h1M27 38.5h2M31 38.5h1M34 38.5h1M36 38.5h3"></path></svg>