<svg xmlns="http://www.w3.org/2000/svg" viewBox="0 0 29 29" shape-rendering="crispEdges"><rect width="29" height="29" fill="#fff"></rect><path stroke="#0e1215" d="M2 2.5h7M10 2.5h2M13 2.5h3M20 2.5h7M2 3.5h1M8 3.5h1M10 3.5h3M14 3.5h1M16 3.5h1M18 3.5h1M20 3.5h1M26 3.5h1M2 4.5h1M4 4.5h3M8 4.5h1M10 4.5h7M20 4.5h1M22 4.5h3M26 4.5h1M2 5.5h1M4 5.5h3M8 5.5h1M11 5.5h2M14 5.5h2M17 5.5h2M20 5.5h1M22 5.5h3M26 5.5h1M2 6.5h1M4 6.5h3M8 6.5h1M10 6.5h3M16 6.5h1M20 6.5h1M22 6.5h3M26 6.5h1M2 7.5h1M8 7.5h1M12 7.5h3M16 7.5h1M20 7.5h1M26 7.5h1M2 8.5h7M10 8.5h1M12 8.5h1M14 8.5h1M16 8.5h1M18 8.5h1M20 8.5h7M13 9.5h1M15 9.5h1M17 9.5h2M2 10.5h1M5 10.5h6M16 10.5h4M22 10.5h1M24 10.5h3M2 11.5h1M7 11.5h1M9 11.5h1M11 11.5h1M13 11.5h2M17 11.5h1M21 11.5h5M4 12.5h5M11 12.5h2M15 12.5h3M20 12.5h2M23 12.5h1M26 12.5h1M2 13.5h1M4 13.5h1M6 13.5h2M9 13.5h4M14 13.5h1M17 13.5h2M20 13.5h1M23 13.5h4M2 14.5h1M8 14.5h6M17 14.5h1M20 14.5h1M26 14.5h1M2 15.5h3M7 15.5h1M9 15.5h1M12 15.5h1M14 15.5h2M17 15.5h2M22 15.5h1M25 15.5h1M2 16.5h2M5 16.5h2M8 16.5h1M10 16.5h1M12 16.5h1M16 16.5h2M20 16.5h1M22 16.5h5M2 17.5h1M4 17.5h1M6 17.5h1M9 17.5h4M14 17.5h1M16 17.5h2M19 17.5h1M21 17.5h1M23 17.5h2M26 17.5h1M2 18.5h1M4 18.5h2M8 18.5h8M18 18.5h5M24 18.5h2M10 19.5h2M13 19.5h1M18 19.5h1M22 19.5h1M24 19.5h2M2 20.5h7M10 20.5h1M12 20.5h1M14 20.5h2M18 20.5h1M20 20.5h1M22 20.5h1M26 20.5h1M2 21.5h1M8 21.5h1M10 21.5h2M13 21.5h1M15 21.5h1M17 21.5h2M22 21.5h1M2 22.5h1M4 22.5h3M8 22.5h1M10 22.5h2M13 22.5h1M15 22.5h1M17 22.5h6M25 22.5h2M2 23.5h1M4 23.5h3M8 23.5h1M10 23.5h1M12 23.5h1M14 23.5h3M19 23.5h2M25 23.5h2M2 24.5h1M4 24.5h3M8 24.5h1M13 24.5h1M15 24.5h1M18 24.5h2M22 24.5h5M2 25.5h1M8 25.5h1M11 25.5h5M19 25.5h4M24 25.5h3M2 26.5h7M10 26.5h1M12 26.5h4M17 26.5h2M23 26.5h1M26 26.5h1"></path></svg>